<mxfile host="app.diagrams.net" modified="2021-04-23T08:13:48.745Z" agent="5.0 (Macintosh; Intel Mac OS X 10_15_7) AppleWebKit/537.36 (KHTML, like Gecko) Chrome/86.0.4240.193 Safari/537.36" etag="K1NmXktkZbF0yX9-_J8F" version="14.6.5" type="github">
  <diagram id="dJch-wXbQDqTRvrUfrwf" name="Page-1">
    <mxGraphModel dx="946" dy="536" grid="1" gridSize="10" guides="1" tooltips="1" connect="1" arrows="1" fold="1" page="1" pageScale="1" pageWidth="827" pageHeight="1169" math="0" shadow="0">
      <root>
        <mxCell id="0" />
        <mxCell id="1" parent="0" />
        <mxCell id="99Oe7woL3stmwpvK9TVt-1" value="" style="shape=table;html=1;whiteSpace=wrap;startSize=0;container=1;collapsible=0;childLayout=tableLayout;fillColor=#ffe6cc;strokeColor=#d79b00;" vertex="1" parent="1">
          <mxGeometry x="150" y="110" width="60" height="400" as="geometry" />
        </mxCell>
        <mxCell id="99Oe7woL3stmwpvK9TVt-38" style="shape=partialRectangle;html=1;whiteSpace=wrap;collapsible=0;dropTarget=0;pointerEvents=0;fillColor=none;top=0;left=0;bottom=0;right=0;points=[[0,0.5],[1,0.5]];portConstraint=eastwest;" vertex="1" parent="99Oe7woL3stmwpvK9TVt-1">
          <mxGeometry width="60" height="40" as="geometry" />
        </mxCell>
        <mxCell id="99Oe7woL3stmwpvK9TVt-39" value="0" style="shape=partialRectangle;html=1;whiteSpace=wrap;connectable=0;fillColor=none;top=0;left=0;bottom=0;right=0;overflow=hidden;" vertex="1" parent="99Oe7woL3stmwpvK9TVt-38">
          <mxGeometry width="60" height="40" as="geometry" />
        </mxCell>
        <mxCell id="99Oe7woL3stmwpvK9TVt-26" style="shape=partialRectangle;html=1;whiteSpace=wrap;collapsible=0;dropTarget=0;pointerEvents=0;fillColor=none;top=0;left=0;bottom=0;right=0;points=[[0,0.5],[1,0.5]];portConstraint=eastwest;" vertex="1" parent="99Oe7woL3stmwpvK9TVt-1">
          <mxGeometry y="40" width="60" height="40" as="geometry" />
        </mxCell>
        <mxCell id="99Oe7woL3stmwpvK9TVt-27" value="1" style="shape=partialRectangle;html=1;whiteSpace=wrap;connectable=0;fillColor=none;top=0;left=0;bottom=0;right=0;overflow=hidden;" vertex="1" parent="99Oe7woL3stmwpvK9TVt-26">
          <mxGeometry width="60" height="40" as="geometry" />
        </mxCell>
        <mxCell id="99Oe7woL3stmwpvK9TVt-24" style="shape=partialRectangle;html=1;whiteSpace=wrap;collapsible=0;dropTarget=0;pointerEvents=0;fillColor=none;top=0;left=0;bottom=0;right=0;points=[[0,0.5],[1,0.5]];portConstraint=eastwest;" vertex="1" parent="99Oe7woL3stmwpvK9TVt-1">
          <mxGeometry y="80" width="60" height="40" as="geometry" />
        </mxCell>
        <mxCell id="99Oe7woL3stmwpvK9TVt-25" value="2" style="shape=partialRectangle;html=1;whiteSpace=wrap;connectable=0;fillColor=none;top=0;left=0;bottom=0;right=0;overflow=hidden;" vertex="1" parent="99Oe7woL3stmwpvK9TVt-24">
          <mxGeometry width="60" height="40" as="geometry" />
        </mxCell>
        <mxCell id="99Oe7woL3stmwpvK9TVt-22" style="shape=partialRectangle;html=1;whiteSpace=wrap;collapsible=0;dropTarget=0;pointerEvents=0;fillColor=none;top=0;left=0;bottom=0;right=0;points=[[0,0.5],[1,0.5]];portConstraint=eastwest;" vertex="1" parent="99Oe7woL3stmwpvK9TVt-1">
          <mxGeometry y="120" width="60" height="40" as="geometry" />
        </mxCell>
        <mxCell id="99Oe7woL3stmwpvK9TVt-23" value="3" style="shape=partialRectangle;html=1;whiteSpace=wrap;connectable=0;fillColor=none;top=0;left=0;bottom=0;right=0;overflow=hidden;" vertex="1" parent="99Oe7woL3stmwpvK9TVt-22">
          <mxGeometry width="60" height="40" as="geometry" />
        </mxCell>
        <mxCell id="99Oe7woL3stmwpvK9TVt-20" style="shape=partialRectangle;html=1;whiteSpace=wrap;collapsible=0;dropTarget=0;pointerEvents=0;fillColor=none;top=0;left=0;bottom=0;right=0;points=[[0,0.5],[1,0.5]];portConstraint=eastwest;" vertex="1" parent="99Oe7woL3stmwpvK9TVt-1">
          <mxGeometry y="160" width="60" height="40" as="geometry" />
        </mxCell>
        <mxCell id="99Oe7woL3stmwpvK9TVt-21" value="4" style="shape=partialRectangle;html=1;whiteSpace=wrap;connectable=0;fillColor=none;top=0;left=0;bottom=0;right=0;overflow=hidden;" vertex="1" parent="99Oe7woL3stmwpvK9TVt-20">
          <mxGeometry width="60" height="40" as="geometry" />
        </mxCell>
        <mxCell id="99Oe7woL3stmwpvK9TVt-18" style="shape=partialRectangle;html=1;whiteSpace=wrap;collapsible=0;dropTarget=0;pointerEvents=0;fillColor=none;top=0;left=0;bottom=0;right=0;points=[[0,0.5],[1,0.5]];portConstraint=eastwest;" vertex="1" parent="99Oe7woL3stmwpvK9TVt-1">
          <mxGeometry y="200" width="60" height="40" as="geometry" />
        </mxCell>
        <mxCell id="99Oe7woL3stmwpvK9TVt-19" value="5" style="shape=partialRectangle;html=1;whiteSpace=wrap;connectable=0;fillColor=none;top=0;left=0;bottom=0;right=0;overflow=hidden;" vertex="1" parent="99Oe7woL3stmwpvK9TVt-18">
          <mxGeometry width="60" height="40" as="geometry" />
        </mxCell>
        <mxCell id="99Oe7woL3stmwpvK9TVt-16" style="shape=partialRectangle;html=1;whiteSpace=wrap;collapsible=0;dropTarget=0;pointerEvents=0;fillColor=none;top=0;left=0;bottom=0;right=0;points=[[0,0.5],[1,0.5]];portConstraint=eastwest;" vertex="1" parent="99Oe7woL3stmwpvK9TVt-1">
          <mxGeometry y="240" width="60" height="40" as="geometry" />
        </mxCell>
        <mxCell id="99Oe7woL3stmwpvK9TVt-17" value="6" style="shape=partialRectangle;html=1;whiteSpace=wrap;connectable=0;fillColor=none;top=0;left=0;bottom=0;right=0;overflow=hidden;" vertex="1" parent="99Oe7woL3stmwpvK9TVt-16">
          <mxGeometry width="60" height="40" as="geometry" />
        </mxCell>
        <mxCell id="99Oe7woL3stmwpvK9TVt-14" style="shape=partialRectangle;html=1;whiteSpace=wrap;collapsible=0;dropTarget=0;pointerEvents=0;fillColor=none;top=0;left=0;bottom=0;right=0;points=[[0,0.5],[1,0.5]];portConstraint=eastwest;" vertex="1" parent="99Oe7woL3stmwpvK9TVt-1">
          <mxGeometry y="280" width="60" height="40" as="geometry" />
        </mxCell>
        <mxCell id="99Oe7woL3stmwpvK9TVt-15" value="7" style="shape=partialRectangle;html=1;whiteSpace=wrap;connectable=0;fillColor=none;top=0;left=0;bottom=0;right=0;overflow=hidden;" vertex="1" parent="99Oe7woL3stmwpvK9TVt-14">
          <mxGeometry width="60" height="40" as="geometry" />
        </mxCell>
        <mxCell id="99Oe7woL3stmwpvK9TVt-32" style="shape=partialRectangle;html=1;whiteSpace=wrap;collapsible=0;dropTarget=0;pointerEvents=0;fillColor=none;top=0;left=0;bottom=0;right=0;points=[[0,0.5],[1,0.5]];portConstraint=eastwest;" vertex="1" parent="99Oe7woL3stmwpvK9TVt-1">
          <mxGeometry y="320" width="60" height="40" as="geometry" />
        </mxCell>
        <mxCell id="99Oe7woL3stmwpvK9TVt-33" value="8" style="shape=partialRectangle;html=1;whiteSpace=wrap;connectable=0;fillColor=none;top=0;left=0;bottom=0;right=0;overflow=hidden;" vertex="1" parent="99Oe7woL3stmwpvK9TVt-32">
          <mxGeometry width="60" height="40" as="geometry" />
        </mxCell>
        <mxCell id="99Oe7woL3stmwpvK9TVt-34" style="shape=partialRectangle;html=1;whiteSpace=wrap;collapsible=0;dropTarget=0;pointerEvents=0;fillColor=none;top=0;left=0;bottom=0;right=0;points=[[0,0.5],[1,0.5]];portConstraint=eastwest;" vertex="1" parent="99Oe7woL3stmwpvK9TVt-1">
          <mxGeometry y="360" width="60" height="40" as="geometry" />
        </mxCell>
        <mxCell id="99Oe7woL3stmwpvK9TVt-35" value="9" style="shape=partialRectangle;html=1;whiteSpace=wrap;connectable=0;fillColor=none;top=0;left=0;bottom=0;right=0;overflow=hidden;" vertex="1" parent="99Oe7woL3stmwpvK9TVt-34">
          <mxGeometry width="60" height="40" as="geometry" />
        </mxCell>
        <mxCell id="99Oe7woL3stmwpvK9TVt-44" style="edgeStyle=orthogonalEdgeStyle;rounded=0;orthogonalLoop=1;jettySize=auto;html=1;exitX=1;exitY=0.5;exitDx=0;exitDy=0;entryX=0;entryY=0.5;entryDx=0;entryDy=0;" edge="1" parent="1" source="99Oe7woL3stmwpvK9TVt-40" target="99Oe7woL3stmwpvK9TVt-41">
          <mxGeometry relative="1" as="geometry" />
        </mxCell>
        <mxCell id="99Oe7woL3stmwpvK9TVt-40" value="11" style="rounded=0;whiteSpace=wrap;html=1;fillColor=#dae8fc;strokeColor=#6c8ebf;" vertex="1" parent="1">
          <mxGeometry x="270" y="150" width="60" height="40" as="geometry" />
        </mxCell>
        <mxCell id="99Oe7woL3stmwpvK9TVt-41" value="21" style="rounded=0;whiteSpace=wrap;html=1;fillColor=#dae8fc;strokeColor=#6c8ebf;" vertex="1" parent="1">
          <mxGeometry x="384" y="150" width="60" height="40" as="geometry" />
        </mxCell>
        <mxCell id="99Oe7woL3stmwpvK9TVt-42" value="34" style="rounded=0;whiteSpace=wrap;html=1;fillColor=#dae8fc;strokeColor=#6c8ebf;" vertex="1" parent="1">
          <mxGeometry x="270" y="270" width="60" height="40" as="geometry" />
        </mxCell>
        <mxCell id="99Oe7woL3stmwpvK9TVt-43" style="edgeStyle=orthogonalEdgeStyle;rounded=0;orthogonalLoop=1;jettySize=auto;html=1;exitX=1;exitY=0.5;exitDx=0;exitDy=0;entryX=0;entryY=0.5;entryDx=0;entryDy=0;" edge="1" parent="1" source="99Oe7woL3stmwpvK9TVt-26" target="99Oe7woL3stmwpvK9TVt-40">
          <mxGeometry relative="1" as="geometry" />
        </mxCell>
        <mxCell id="99Oe7woL3stmwpvK9TVt-45" style="edgeStyle=orthogonalEdgeStyle;rounded=0;orthogonalLoop=1;jettySize=auto;html=1;exitX=1;exitY=0.5;exitDx=0;exitDy=0;entryX=0;entryY=0.5;entryDx=0;entryDy=0;" edge="1" parent="1" source="99Oe7woL3stmwpvK9TVt-20" target="99Oe7woL3stmwpvK9TVt-42">
          <mxGeometry relative="1" as="geometry" />
        </mxCell>
      </root>
    </mxGraphModel>
  </diagram>
</mxfile>
